<?xml version="1.0" encoding="utf-8"?>
<!-- Generator: Adobe Illustrator 25.2.3, SVG Export Plug-In . SVG Version: 6.00 Build 0)  -->
<svg version="1.1" xmlns="http://www.w3.org/2000/svg" xmlns:xlink="http://www.w3.org/1999/xlink" x="0px" y="0px"
	 viewBox="0 0 1000 1000" style="enable-background:new 0 0 1000 1000;" xml:space="preserve">
<style type="text/css">
	.st0{display:none;}
	.st1{display:inline;}
	.st2{fill:none;stroke:#000000;stroke-width:35;stroke-miterlimit:10;}
	.st3{fill:#FFFFFF;}
</style>
<g id="Layer_2" class="st0">
	<g class="st1">
		<path d="M696.3,337.3v246.1H303.7V337.3H696.3 M697.3,336.3h-1H303.7h-1v1v246.1v1h1h392.5h1v-1V337.3V336.3L697.3,336.3z"/>
	</g>
</g>
<g id="Layer_1">
	<path class="st2" d="M109.9-897.9"/>
	<g>
		
			<ellipse transform="matrix(0.7071 -0.7071 0.7071 0.7071 -414.1343 -211.7959)" class="st3" cx="-462.7" cy="394" rx="51.1" ry="51.1"/>
		<path class="st3" d="M-262.8,534.9c14.8-15.9,29.2-32.5,43.1-49.9c53.1-66.6,99-144.5,137-232.5h-95.5
			C-247.9,399.3-342.6,512.4-456,583.3c-60,37.5-113.9,56-149.8,65.2V252.5h-86.9v493.8l45.9-2.6c4.3-0.2,106.6-6.9,231.7-83.5
			c28.4-17.4,55.7-37,81.9-58.8C-294.3,571.3-262.8,534.9-262.8,534.9z"/>
	</g>
	<rect x="-267" y="435.1" class="st3" width="70.4" height="312.4"/>
	<g>
		<path d="M1564.6,601.4c-26.2,21.8-53.6,41.4-81.9,58.8c-125.1,76.6-239.6,86.2-239.6,86.2V252.5h86.9v384.5
			c14.7,0,31.8-3.1,50.8-9.6c50.8-17.3,115.4-58.3,184.4-126.5c3.3-3.2,6.6-6.6,9.9-10c29.5-30.1,54.3-63.5,74.5-95.6
			c46.6-73.8,69.2-140.3,70-142.8c0,0,0,0,0,0c0,0,0,0,0,0h95.5c0,0,0,0,0,0c0,0,0,0,0,0.1c-38,87.9-83.9,165.8-136.9,232.4
			c-3.6,4.5-7.2,8.9-10.8,13.3c-10.5,12.6-21.2,24.8-32.3,36.6"/>
	</g>
	<path d="M1732.6,416.3v331.1h-102.1V429.2c3.3-4.2,6.6-8.5,9.9-12.8H1732.6z"/>
	<ellipse transform="matrix(0.7071 -0.7071 0.7071 0.7071 152.5368 1156.2693)" cx="1472" cy="394" rx="51.1" ry="51.1"/>
	<path d="M1815,252.5C1815,252.5,1815,252.5,1815,252.5c0,0,0,0.1,0,0.1c-1.5,4.6-48.8,143.5-147.8,264.1
		c-10.2,12.4-20.9,24.7-32.3,36.5c-2,2.1-4,4.1-6,6.2c-21.5,22-42.8,41.9-63.9,59.9c-0.2,0.1-0.4,0.3-0.5,0.5
		C1461.3,707.3,1361,747.5,1243,747.5v-1.1l137.7-118.9c50.8-17.3,115.4-58.3,184.4-126.5c3.3-3.2,6.6-6.6,9.9-10
		c29.5-30.1,54.3-63.5,74.5-95.6L1815,252.5z"/>
	<g>
		<path class="st3" d="M818.6,86.1C818.6,86.1,818.6,86.2,818.6,86.1c0,0.1,0,0.1-0.1,0.1c-1.4,4.1-39.2,115.5-117,238.8
			c-33.9,53.6-75.3,109.5-124.6,159.9c-5.5,5.7-11.1,11.2-16.6,16.6C445,615.6,337,684.3,252,713.2c-31.8,10.8-60.4,16.1-85,16.1
			V86.1H21.7V912v1.9c197.3,0,365.2-67.2,537.8-213.6c0.3-0.3,0.6-0.5,0.9-0.8c35.3-30,70.9-63.4,106.9-100.1
			c0.8-0.9,1.7-1.7,2.5-2.6v231.6c0,47.2,38.2,85.4,85.4,85.4h0c47.2,0,85.4-38.2,85.4-85.4V372.9C931.8,223,976.4,92,978.3,86.3
			c0-0.1,0-0.1,0.1-0.1c0,0,0-0.1,0-0.1H818.6z"/>
		
			<ellipse transform="matrix(0.7106 -0.7035 0.7035 0.7106 -109.961 378.0978)" class="st3" cx="404.7" cy="322.7" rx="85.4" ry="85.4"/>
	</g>
	<g>
		<path d="M111.1-832.9C111.1-832.9,111.1-832.9,111.1-832.9C111.1-832.9,111.1-832.9,111.1-832.9c-0.3,0.9-8.6,25.4-25.7,52.5
			C78-768.6,68.8-756.3,58-745.3c-1.2,1.2-2.4,2.5-3.6,3.7C29-716.5,5.3-701.5-13.4-695.1c-7,2.4-13.3,3.5-18.7,3.5v-141.3H-64
			v181.4v0.4c43.4,0,80.2-14.8,118.2-46.9c0.1-0.1,0.1-0.1,0.2-0.2c7.8-6.6,15.6-13.9,23.5-22c0.2-0.2,0.4-0.4,0.5-0.6v50.9
			c0,10.4,8.4,18.8,18.8,18.8h0c10.4,0,18.8-8.4,18.8-18.8v-100.1c20.1-32.9,29.8-61.7,30.3-63c0,0,0,0,0,0s0,0,0,0H111.1z"/>
		<path d="M18.3-762.2c11.9,1.2,21.8-8.7,20.6-20.6c-0.9-8.8-8-15.9-16.8-16.8c-11.9-1.2-21.8,8.7-20.6,20.6
			C2.4-770.2,9.5-763.1,18.3-762.2z"/>
	</g>
	<g>
		<path d="M111.1-1109.5C111.1-1109.5,111.1-1109.5,111.1-1109.5C111.1-1109.5,111.1-1109.5,111.1-1109.5
			c-0.3,0.9-8.6,25.4-25.7,52.5c-7.4,11.8-16.5,24.1-27.4,35.1c-1.2,1.2-2.4,2.5-3.6,3.7C29-993.2,5.3-978.1-13.4-971.8
			c-7,2.4-13.3,3.5-18.7,3.5v-141.3H-64v181.4v0.4c43.4,0,80.2-14.8,118.2-46.9c0.1-0.1,0.1-0.1,0.2-0.2c7.8-6.6,15.6-13.9,23.5-22
			c0.2-0.2,0.4-0.4,0.5-0.6v69.7h37.5v-118.9c20.1-32.9,29.8-61.7,30.3-63c0,0,0,0,0,0s0,0,0,0H111.1z"/>
		<ellipse transform="matrix(0.7071 -0.7071 0.7071 0.7071 753.7175 -295.4905)" cx="20.2" cy="-1057.6" rx="18.8" ry="18.8"/>
	</g>
	<path d="M332.5-927.7h-57.7c0-4.4,0.3-36.5,0.3-36.5c-0.3-8.7-2.2-14.6-5.5-17.9c-3.3-3.2-9.2-4.9-17.8-4.9h-19.9v59.3h-57.7
		v-181.9h89.7c46.7,0,70,17.8,70,53.4c0,21.8-9.1,36.3-27.3,43.4c8.2,3.1,14.3,7.7,18.3,14c4,6.3,6.4,14.9,7.3,25.8
		C332-972.9,332.5-932,332.5-927.7z M254.8-1028.8c13.3,0,19.9-6,19.9-18.1c0-12.1-6.6-18.1-19.9-18.1h-23v36.3H254.8z"/>
	<path d="M332.5-651h-57.7c0-4.4,0.3-36.5,0.3-36.5c-0.3-8.7-2.2-14.6-5.5-17.9c-3.3-3.2-9.2-4.9-17.8-4.9h-19.9v59.3h-57.7v-181.9
		h89.7c46.7,0,70,17.8,70,53.4c0,21.8-9.1,36.3-27.3,43.4c8.2,3.1,14.3,7.7,18.3,14c4,6.3,6.4,14.9,7.3,25.8
		C332-696.2,332.5-655.3,332.5-651z M254.8-752.2c13.3,0,19.9-6,19.9-18.1c0-12.1-6.6-18.1-19.9-18.1h-23v36.3H254.8z"/>
	<path d="M510.8-1060h-91.4v17.9h84.5v47.8h-84.5v17.1h91.4v49.6H361.6v-181.9h149.2V-1060z"/>
	<path d="M537.4-927.7v-106.3h57.7v106.3H537.4z"/>
	<circle cx="566.3" cy="-1080.7" r="28.9"/>
	<path d="M504.8-783.3h-91.4v17.9h84.5v47.8h-84.5v17.1h91.4v49.6H355.6v-181.9h149.2V-783.3z"/>
	<path d="M525.4-651v-106.3h57.7V-651H525.4z"/>
	<circle cx="554.3" cy="-804" r="28.9"/>
	<polyline points="537.4,-1080.7 537.4,-1109.5 595.1,-1109.5 595.1,-1080.7 	"/>
	<polyline points="525.4,-804 525.4,-832.9 583.1,-832.9 583.1,-804 	"/>
</g>
<g id="Layer_3" class="st0">
	<path class="st1" d="M656.4,583.4h39.3c-21.2-46.1-58.1-83.9-108.2-110.4c-44.3-23.4-83.1-29.7-84.8-29.9l-5.5,34.6
		C498.5,477.8,606.2,495.9,656.4,583.4z"/>
</g>
</svg>
